<svg xmlns="http://www.w3.org/2000/svg" xmlns:xlink="http://www.w3.org/1999/xlink" viewBox="0 0 364.68 363"><defs><style>.cls-1,.cls-2,.cls-4{fill:#095463;}.cls-1,.cls-5{stroke:#fff;stroke-miterlimit:10;}.cls-1,.cls-2,.cls-5{opacity:0;}.cls-3{clip-path:url(#clip-path);}.cls-5{fill:none;}</style><clipPath id="clip-path" transform="translate(1.68)"><circle class="cls-1" cx="181.5" cy="181.5" r="181"/></clipPath></defs><g id="Layer_2" data-name="Layer 2"><g id="Layer_1-2" data-name="Layer 1"><circle class="cls-2" cx="183.18" cy="181.5" r="181"/><g class="cls-3"><path class="cls-4" d="M139.35,281c28.15,5.63,55.9,6.42,83.12,2a230.77,230.77,0,0,0,50.26-14.47c40.8-16.84,69.73-42.31,88.33-62.74a183.13,183.13,0,0,0,1.62-24.25c0-4.26-.16-8.47-.45-12.65C339.83,153.3,301.55,136,276.34,125L250,90.78c12.32,4,34.37,11.16,46.29,16.13a404.75,404.75,0,0,1,61.36,32.2A181.49,181.49,0,0,0,181.26.08C92.9.08,19.31,63.26,3.16,146.9c10.82-7.81,22.1-15,33.68-21.71C61.21,111,86.66,99.2,113.94,92a355,355,0,0,1,51.28-10.06c24-2.67,45.34,5.39,63.55,20.92C245.39,117,256,134.94,261.16,156.26c12.21,50.26-23.56,97.82-75.51,100l-3.28.15c-38.06.49-68.6-28.58-68.73-64.73-.13-37.73,40.09-65.12,75.52-51.43,25,9.65,36.16,40.9,22.13,62.56-8,12.39-20.29,17.69-34.68,18.29l-1.31-21.79c3.24-.56,6.68-.86,9.61-2.2,6.53-3,10.56-8.15,10.23-15.6-.38-8.35-4.47-14.76-11.7-19-10.51-6.21-21-4.31-30.81,1.34-10.37,6-16.74,15.1-16.45,27.6.59,25.52,23,44.82,48.62,42.62,22.26-1.91,39.16-11.88,49.84-31.47,7.9-14.5,8.07-30.15,3.38-45.38-8.69-28.28-27.16-47-57.19-52.42a66.17,66.17,0,0,0-20.31,0c-40.05,5.5-77.09,19.44-111.93,39.72-16.71,9.73-33.49,21.74-48.7,33.71,0,1.13,0,2.25,0,3.38a181.58,181.58,0,0,0,3.93,37.64,449.09,449.09,0,0,0,56.66,34C85.53,265.69,111.72,275.43,139.35,281Z" transform="translate(1.68)"/><path class="cls-4" d="M289.85,285.49a250.57,250.57,0,0,1-78.22,21.2c-32.64,3.42-64.68.05-96.13-8.41C86.43,290.46,59,278.39,32.74,263.76q-9.3-5.17-18.28-10.82A181.48,181.48,0,0,0,351,245.73c-1.17,1.07-1.94,1.83-2.09,2A236,236,0,0,1,289.85,285.49Z" transform="translate(1.68)"/><path class="cls-4" d="M-1.68,215.3v27.11q8,5.42,16.14,10.53a179.73,179.73,0,0,1-10.69-33.8C2,217.87.12,216.6-1.68,215.3Z" transform="translate(1.68)"/><path class="cls-4" d="M351,245.73c.38-.35.81-.73,1.28-1.14,1.54-1.33,2.92-2.41,4-3.23,1.11-4.07,2.13-8.41,3-13a182.43,182.43,0,0,0,3-24l-1.26,1.39A180,180,0,0,1,351,245.73Z" transform="translate(1.68)"/><path class="cls-4" d="M-1.32,150.19a33.19,33.19,0,0,1,.6,6.14l-1,23,1.57-1.24A181.24,181.24,0,0,1,3.16,146.9Q.89,148.52-1.32,150.19Z" transform="translate(1.68)"/><path class="cls-4" d="M362.32,168.9v-4.14c-.07-.91-.15-1.82-.22-2.73-.5-6.86-.76-13.73-.73-20.59-1.22-.79-2.46-1.55-3.68-2.33a181.7,181.7,0,0,1,4.54,29.74Z" transform="translate(1.68)"/></g><circle class="cls-5" cx="183.18" cy="181.5" r="181"/></g></g></svg>